<svg xmlns="http://www.w3.org/2000/svg" width="256" height="256"><path fill-opacity=".016" d="M0 128.004v128.004l128.25-.254 128.25-.254.254-127.75L257.008 0H0v128.004m.485.496c0 70.4.119 99.053.265 63.672.146-35.38.146-92.98 0-128C.604 29.153.485 58.1.485 128.5" fill="#1976D2" fill-rule="evenodd"/><path fill-opacity=".307" d="M0 128.011v112.997l128.25-.254 128.25-.254.254-113 .255-113-128.505.258L0 15.015v112.996M.483 128c0 62.425.12 87.963.267 56.75.147-31.212.147-82.287 0-113.5C.603 40.038.483 65.575.483 128m113.93-105.289-3.087.391-2.139 11.199c-4.731 24.763-4.968 45.449-.553 48.375 1.852 1.227 2.333 1.214 3.643-.095 1.345-1.346 1.57-1.274 2.076.661.312 1.194.815 1.923 1.118 1.62.303-.302-.124-2.462-.949-4.799-.825-2.338-2.004-8.185-2.621-12.995-.934-7.288-.841-10.563.563-19.657.926-6.001 2.775-13.975 4.11-17.721 2.696-7.566 2.738-7.757 1.676-7.53-.412.088-2.139.336-3.837.551M135.05 26.7c.44 2.09 1.509 6.5 2.375 9.8 2.061 7.849 2.929 23.908 1.849 34.181-.474 4.5-.486 7.95-.027 7.667.458-.284.554.76.212 2.318-.347 1.587-.255 2.343.21 1.719.457-.614 1.842-1.431 3.079-1.817 2.417-.754 2.7-1.537 4.257-11.776 1.135-7.463-.193-30.319-2.312-39.792l-1.23-5.5-4.606-.3-4.607-.299.8 3.799m88.343 61.351c6.114 8.545 9.774 21.105 11.094 38.073l.672 8.624 5.17-1.906c7.768-2.862 9.671-4.013 9.671-5.85 0-3.348-16.451-29.206-22.824-35.874-3.478-3.64-5.18-5.02-3.783-3.067M115 86.893c0 .491.652 1.143 1.449 1.449.969.372 1.265.076.893-.893-.607-1.582-2.342-1.994-2.342-.556m66.502.237c.404 1.064-.316 2.365-2.076 3.75-1.483 1.166-2.263 2.12-1.735 2.12.528 0 2.023-1.131 3.321-2.513 1.883-2.004 2.109-2.764 1.116-3.75-.992-.985-1.12-.904-.626.393M25.727 96.75c-5.49 7.192-14.979 24.093-17.324 30.855l-1.77 5.106 2.934 4.679c2.353 3.754 9.496 9.61 11.722 9.61.239 0-.035-2.049-.609-4.554-2.269-9.916 2.667-38.59 8.281-48.104 2.936-4.976 1.702-4.057-3.234 2.408m151.302-.789c-.809.512-1.211 1.191-.893 1.509.319.318 1.148-.108 1.844-.946 1.443-1.738 1.166-1.902-.951-.563m-88.76 2.732c.973.254 2.323.237 3-.037.677-.274-.119-.481-1.769-.461-1.65.02-2.204.244-1.231.498m70.544-.01c.721.289 1.584.253 1.916-.079.332-.332-.258-.568-1.312-.525-1.165.048-1.402.285-.604.604M165 104c-.901.582-1.025.975-.309.985.655.008 1.469-.435 1.809-.985.767-1.242.421-1.242-1.5 0m-85 7.5c0 5.833.205 6.5 2 6.5 1.661 0 2-.667 2-3.935 0-4.54-1.485-9.065-2.975-9.065-.595 0-1.025 2.729-1.025 6.5m87.2-5.3c-2.356 2.356-1.118 13.089 1.399 12.124.999-.384 1.401-2.371 1.401-6.931 0-6.402-.557-7.436-2.8-5.193m-17.894 6.373-2.806 2.573 3.25-2.261c1.787-1.244 3.25-2.401 3.25-2.573 0-.789-1.106-.112-3.694 2.261M96.158 116c0 1.375.227 1.938.504 1.25.278-.687.278-1.812 0-2.5-.277-.687-.504-.125-.504 1.25M151 117c0 1.1.408 2 .906 2 .499 0 .671-.9.384-2-.288-1.1-.696-2-.907-2-.21 0-.383.9-.383 2m-97.731 12.693c.973.254 2.323.237 3-.037.677-.274-.119-.481-1.769-.461-1.65.02-2.204.244-1.231.498m186.421 8.674c-2.471 2.402-6.212 7.014-8.314 10.25-2.102 3.236-6.002 8.547-8.668 11.804-2.666 3.257-5.949 8.094-7.295 10.75-1.346 2.656-2.704 4.829-3.017 4.829-.314 0-4.694-1.317-9.734-2.926-14-4.472-29.767-8.557-33.662-8.722-8.409-.356-19.643-1.696-21.278-2.537-2.663-1.371-1.087-2.814 3.087-2.825 4.657-.013 22.688 2.572 35.479 5.086 5.383 1.058 10.783 1.91 12 1.894 3.832-.053-.3-1.79-8.224-3.457-3.928-.826-8.46-2.184-10.071-3.017-3.779-1.954-26.249-3.84-35.637-2.991-5.049.456-7.36.298-7.878-.541-.404-.653-.119-1.568.633-2.033.752-.464 17.572-.68 37.378-.479l36.011.366-10.5-1.915c-7.203-1.314-14.111-1.844-22-1.689-11.164.219-11.624.142-15.755-2.631-3.894-2.613-4.812-2.811-10.799-2.331-4.399.353-7.215 1.134-8.594 2.382-1.129 1.021-3.907 2.542-6.174 3.38-4.617 1.705-8.267 6.276-9.266 11.606-.516 2.75-.119 4.076 2.091 6.973 3.716 4.871 11.228 9.477 9.927 6.085-.291-.758.596-1.825 2.078-2.5 3.309-1.507 3.492-1.488 3.492.372 0 .852.717 2.935 1.593 4.629 1.578 3.052 1.651 3.075 8.009 2.565 4.179-.336 8.293-1.464 11.796-3.236 4.992-2.526 5.749-2.642 10.539-1.615C183.36 177.271 189 177.32 189 176c0-.55-2.137-1.026-4.75-1.058-7.861-.095-12.692-1.281-13.063-3.207-.593-3.08 6.403-2.013 21.813 3.327 7.975 2.764 16.525 5.611 19 6.328 2.475.717 8.606 2.947 13.624 4.956 12.761 5.11 13.716 4.455 1.994-1.367-5.435-2.7-10.103-5.131-10.373-5.401-.27-.27 2.088-3.323 5.241-6.785 7.023-7.711 14.085-17.994 18.745-27.293 6.356-12.686 5.977-14.44-1.541-7.133M52 143c1.268 1.1 2.532 2 2.808 2 .276 0-.313-.9-1.308-2-.995-1.1-2.259-2-2.808-2-.549 0 .04.9 1.308 2m6.972 2.072c-1.223.801-.988 1.392 1.393 3.497 1.576 1.394 2.701 2.679 2.5 2.857-.201.178-3.965.75-8.365 1.272-5.89.697-.086.84 22 .539 20.575-.28 30.908-.058 32.889.705 1.588.613 2.623 1.379 2.299 1.703-.891.891-34.16.8-35.612-.098-1.647-1.018-28.076 2.53-28.076 3.769 0 .546 1.803.683 4.25.325 2.337-.343 8.525-.867 13.75-1.166l9.5-.542-4.5 1.978c-2.475 1.087-5.625 2.028-7 2.091-2.666.121-17.238 3.843-15.426 3.94.59.032 5.724-.637 11.407-1.487 17.442-2.608 21.72.204 6.464 4.25-4.92 1.304-12.456 3.479-16.747 4.833-11.101 3.503-11.034 3.523-10.489-3.039l.456-5.5-10.583-6.843c-5.82-3.763-11.105-7.139-11.744-7.503-2.517-1.434 7.138 14.376 12.729 20.841 3.263 3.774 5.933 7.124 5.933 7.443 0 .661-2.323 2.206-9.5 6.319-5.871 3.364-2.786 2.686 6.273-1.378 4.653-2.088 6.863-2.608 8.152-1.918.973.52 2.175.588 2.672.149.497-.438 3.603-1.835 6.903-3.105 3.3-1.269 7.35-3.096 9-4.06C63.072 172.856 72.421 170 75.682 170c1.598 0 2.318.581 2.318 1.871 0 1.613-1.098 1.967-7.983 2.567-4.39.383-8.271 1.164-8.625 1.736-.392.636.087.836 1.233.515 1.031-.289 4.464-.82 7.628-1.179 4.976-.566 6.479-.299 11.133 1.978 10.321 5.05 22.614 4.338 22.614-1.309 0-1.989.271-2.308 1.186-1.393.915.915 1.603.81 3.006-.46 2.254-2.039 3.605-.995 1.701 1.314-1.265 1.533-1.194 1.581.779.53 3.789-2.019 9.168-7.683 9.841-10.364.861-3.432-3.988-13.856-6.785-14.587-1.103-.289-4.05-1.612-6.549-2.941-7.177-3.816-12.738-4.042-19.177-.779-4.703 2.383-6.477 2.716-13.945 2.618-8.174-.108-8.67-.245-11.085-3.061-1.883-2.196-2.904-2.702-4-1.984m118.809 11.109c.65.65 3.778 1.504 6.95 1.897 3.173.394 8.244 1.025 11.269 1.403 5.323.664 5.411.637 2.734-.846-2.522-1.398-14.836-3.635-20.006-3.635-1.637 0-1.855.273-.947 1.181M93.5 159.959c-8.673.704-15.5 2.575-15.5 4.246 0 .679 1.503.803 4.25.35 2.338-.385 7.679-1.055 11.871-1.489 4.192-.434 8.129-1.103 8.75-1.486 1.521-.94 1.437-2.618-.121-2.425-.687.085-4.85.447-9.25.804m11.167 5.708c-1.145 1.145-.736 2.082 1.12 2.567 2.404.629 6.498-.965 5.718-2.226-.695-1.125-5.8-1.38-6.838-.341M86.25 167.36c-4.022 1.992-2.745 3.67 2.268 2.982 3.547-.486 4.945-.233 6.5 1.175 2.605 2.357 2.545.469-.091-2.882-2.187-2.782-4.846-3.172-8.677-1.275m51.75.206c0 1.111.779 1.475 2.673 1.25 3.893-.46 4.236-2.816.41-2.816-2.132 0-3.083.483-3.083 1.566m17.329-.791c-.644.41-1.498 2.091-1.899 3.735-.727 2.98-.723 2.984 1.385 1.117 2.049-1.815 4.373-1.856 8.435-.149 1.259.53 1.75.271 1.75-.922 0-.947-1.488-2.28-3.468-3.107-3.937-1.645-4.568-1.713-6.203-.674M148.158 188c0 1.375.227 1.938.504 1.25.278-.687.278-1.812 0-2.5-.277-.687-.504-.125-.504 1.25m-51.648-.017c-.435.704-.183 1.601.583 2.074 1.821 1.126 2.294.457 1.137-1.61-.713-1.275-1.146-1.392-1.72-.464m14.61 4.389c-1.377 1.466-2.123 3.177-1.778 4.077.5 1.302 2.887 1.549 14.877 1.536 16.997-.019 18.603-.6 14.11-5.108-3.125-3.135-3.237-3.163-7.698-1.914-4.221 1.182-6.458 1.104-14.134-.493-2.398-.499-3.482-.115-5.377 1.902m6.144 10.346c1.52.229 3.77.223 5-.014 1.23-.237-.014-.425-2.764-.418-2.75.008-3.756.202-2.236.432m11.986-.002c1.512.229 3.988.229 5.5 0s.275-.416-2.75-.416-4.263.187-2.75.416m-10 13.973c.963.252 2.537.252 3.5 0 .963-.251.175-.457-1.75-.457s-2.713.206-1.75.457m8.019.004c.973.254 2.323.237 3-.037.677-.274-.119-.481-1.769-.461-1.65.02-2.204.244-1.231.498" fill="#1976D2" fill-rule="evenodd"/><path fill-opacity=".356" d="M0 128.011v112.997l128.25-.254 128.25-.254.254-113 .255-113-128.505.258L0 15.015v112.996M.483 128c0 62.425.12 87.963.267 56.75.147-31.212.147-82.287 0-113.5C.603 40.038.483 65.575.483 128M111.25 22.618c-.687.302-1.264 1.524-1.28 2.715-.028 1.953-.132 1.994-1.05.417-1.244-2.136-3.083-2.337-2.282-.25.395 1.029-.06 1.5-1.448 1.5-1.113 0-2.192-.506-2.398-1.124-.254-.761-3.112-.273-8.833 1.508C86.418 29.73 79.851 33 82.68 33c.584 0 1.37 2.318 1.746 5.151.551 4.155 1.545 6.136 5.142 10.248l4.458 5.097-3.013.78c-4.211 1.092-3.757 1.931.864 1.597 4.824-.348 7.62 1.504 9.611 6.368 1.441 3.521 1.413 3.858-.479 5.75-1.105 1.105-3.022 2.012-4.259 2.015-4.52.011-9.52 2.007-10.044 4.01C86.26 75.721 85.33 76 80.094 76 75.148 76 74 75.695 74 74.383c0-1.254-.616-1.47-2.75-.965-1.513.357-4.775.852-7.25 1.1-2.475.247-6.075.757-8 1.134-1.925.377-3.876.596-4.336.488-1.718-.405-7.476 3.982-9.982 7.606-2.374 3.432-12.25 23.475-16.016 32.504-1.94 4.652-3.828 4.962-3.048.5 2.286-13.084 6.643-23.961 11.278-28.156C35.053 87.547 36 86.221 36 85.649c0-1.826-6.687 5.36-12.315 13.235-6.664 9.323-11.931 18.875-15.206 27.576l-2.473 6.571 3.315 4.713c2.814 4 13.339 11.93 14.411 10.857.178-.178-.121-1.495-.666-2.927-1.48-3.893.194-4.105 6.141-.778 6.601 3.693 15.655 6.059 23.937 6.254 6.221.146 5.808.267-4.894 1.426-2.888.312-5.25.982-5.25 1.489 0 .541 6.294.735 15.25.471l15.25-.451-8.5 1.318c-4.675.725-11.087 1.639-14.25 2.03-3.163.391-5.75 1.076-5.75 1.522 0 1.781 4.99 1.911 14.784.385 9.291-1.447 12.588-1.379 10.982.227-.311.312-3.424 1.188-6.916 1.948-23.585 5.128-20.591 5.386-33.238-2.859-4.462-2.908-9.863-6.347-12.003-7.641l-3.891-2.352 2.835 4.918c5.841 10.132 7.86 13.076 13.072 19.058 3.966 4.552 5.029 6.38 4.112 7.075-.68.516-5.062 2.88-9.737 5.255-9.561 4.855-9.529 4.835-8.811 5.553.63.63 16.494-5.275 19.284-7.177 3.175-2.165 4.673-1.629 9.996 3.576 13.621 13.321 57.229 40.076 62.42 38.296.764-.262 1.109-.023.766.532-.553.896 1.222 1.558 7.767 2.898 1.056.216 2.527.896 3.268 1.511 1.746 1.449 9.31 2.837 9.31 1.708 0-.476-.787-.918-1.75-.981-4.245-.28-4.723-.467-4.83-1.885-.064-.857.067-.965.307-.252.316.943.786.882 1.917-.25.825-.824 2.704-1.559 4.177-1.634 2.203-.112 2.297-.211.531-.556-1.181-.231-2.419-1.183-2.751-2.114a41.437 41.437 0 0 0-1.188-2.952c-.45-.967.02-1.028 2.036-.262 1.441.549 3.157.89 3.812.758.655-.131 1.344.76 1.53 1.979.252 1.644 1.252 2.388 3.868 2.879 3.562.668 10.912-1.094 12.016-2.88.332-.536-.326-.644-1.55-.256-1.356.431-2.125.243-2.125-.518 0-.776.99-.994 2.839-.624 6.423 1.284 47.164-22.622 61.583-36.138l4.541-4.256 5.33 2.438c8.414 3.849 20.446 7.896 21.89 7.363.834-.308.401-.863-1.183-1.513-1.375-.565-7.115-3.251-12.755-5.97l-10.254-4.943 5.831-6.399c9.736-10.685 20.613-28.341 24.115-39.142.667-2.059 1.956-4.158 2.863-4.666 1.525-.853 1.514-1.21-.146-4.692-3.907-8.192-16.211-27.245-21.532-33.342-3.092-3.543-5.474-7.143-5.293-8 .285-1.352.103-1.338-1.372.099-1.597 1.557-1.516 1.891 1.339 5.5 5.569 7.042 10.891 23.406 10.041 30.876-.283 2.492-1.09 1.204-5.035-8.033-11.585-27.124-14.433-31.708-22.207-35.743-4.473-2.321-25.656-5.228-26.647-3.656-.479.761-9.47 2.899-12.191 2.899-.534 0-.696-.717-.36-1.593 2.214-5.77 2.016-6.402-2.039-6.503-6.327-.157-13.858-2.255-13.858-3.86 0-2.463 8.324-8.126 10.968-7.463 1.273.32 2.589.137 2.924-.407.359-.58-.216-.771-1.391-.464-3.555.93-2.226-2.056 3.38-7.592 3.864-3.817 5.237-5.861 4.873-7.256-.28-1.068-.729-1.72-1-1.449-.271.27-1.143-.159-1.939-.955-1.018-1.018-3.442-1.394-8.178-1.268-3.702.099-7.295-.17-7.986-.597-.846-.523-1.638.236-2.427 2.328-1.146 3.035-1.21 2.924-2.935-5.097-.971-4.51-2.242-8.677-2.825-9.262-1.104-1.106-30.419-1.953-32.714-.944M26.559 30.75c.551 3.842 7.737 33.06 11.225 45.641l.801 2.891 1.674-2.555c4.352-6.642 28.708-19.424 43.924-23.052l4.682-1.116-4.182-2.836c-8.026-5.441-19.3-10.535-33.191-14.995-7.696-2.47-16.371-5.445-19.279-6.61C29.305 26.953 26.69 26 26.402 26c-.289 0-.218 2.137.157 4.75M221 28.667a4878.401 4878.401 0 0 1-20.049 6.407c-12.293 3.901-25.116 10.253-31.727 15.718l-3.276 2.708 3.03.21c4.328.3 22.732 6.613 30.193 10.358 8.402 4.216 15.411 9.416 17.534 13.009.949 1.608 2.008 2.923 2.353 2.923 1.535 0 10.906-36.678 12.456-48.75.801-6.244.805-6.243-10.514-2.583m-48 11.392c0 .582.45.781 1 .441s1-.816 1-1.059-.45-.441-1-.441-1 .477-1 1.059m-3.971 1.902c-.809.512-1.211 1.191-.893 1.509.319.318 1.148-.108 1.844-.946 1.443-1.738 1.166-1.902-.951-.563M115 79.163c0 3.125 6.499 14.26 9.211 15.782 2.5 1.403 2.847 1.349 5.134-.8 2.678-2.516 8.023-13.541 7.429-15.324-.237-.711-4.213-1.147-11.072-1.215-9.355-.093-10.702.103-10.702 1.557m-84 6.926c-2.154 1.762-2.196 1.897-.306.973 1.207-.59 2.471-1.52 2.809-2.067.903-1.461.297-1.196-2.503 1.094m193.733-.965c.679.684 1.486.991 1.793.683.308-.308-.247-.867-1.233-1.243-1.425-.542-1.54-.428-.56.56M175.5 89.378c-1.65.714-6.15 2.069-10 3.011-3.85.942-8.125 2.624-9.5 3.738l-2.5 2.025 5.158-.598c6.735-.781 15.282-3.762 20.021-6.982 2.837-1.927 3.288-2.562 1.803-2.533-1.09.022-3.332.624-4.982 1.339m-102 1.266c3.849 3.04 13.047 6.556 18.5 7.071 5.153.486 5.374.419 3.5-1.066-1.1-.872-2.675-1.606-3.5-1.631-.825-.024-5.325-1.383-10-3.018-9.582-3.352-11.391-3.64-8.5-1.356M22 93.059c0 .582.45.781 1 .441s1-.816 1-1.059S23.55 92 23 92s-1 .477-1 1.059m47.89 5.574c-.726.875-2.236 1.962-3.355 2.415-1.504.61-1.613.842-.417.889 1.083.042 1.811 1.304 2.198 3.813.319 2.063.862 4.692 1.208 5.843.558 1.863-.235 2.398-7.198 4.855-4.304 1.518-11.201 4.366-15.326 6.328l-7.5 3.568 9.5 1.242c5.225.684 20.007 1.281 32.849 1.328l23.349.086 2.901 3.106c4.533 4.853 3.69 7.682-2.099 7.044-5.229-.577-10.626-.103-14.871 1.307-5.232 1.738-13.136 7.826-11.857 9.132.425.434 3.125-.27 6-1.565 8.058-3.628 14.471-3.771 21.449-.479 3.178 1.499 6.454 3.04 7.279 3.425 2.19 1.021 6.949 10.078 6.977 13.277.034 3.996-6.065 10.216-13.493 13.761-8.933 4.263-17.896 4.246-26.061-.048-4.412-2.321-6.506-2.885-8.851-2.383-5.555 1.19-5.219 2.011 2.197 5.362 2.487 1.124 9.657 8.243 21.231 21.077 8.996 9.976 14.34 12.861 25.369 13.696 15.563 1.177 23.54-3.003 37.399-19.595C167.681 185.446 175.549 178 177.912 178c.663 0 .928-.45.588-1-1.115-1.804-8.608-1.096-12.256 1.158-2.425 1.499-5.679 2.299-10.654 2.618-6.381.409-8.006.109-14.883-2.754-12.694-5.285-16.054-11.254-11.715-20.815 1.565-3.447 2.891-4.703 6.728-6.373 2.629-1.144 5.507-2.715 6.396-3.491.889-.776 4.37-1.855 7.736-2.397 6.452-1.039 8.081-.633 16.058 3.995 4.822 2.798 5.859 1.448 1.97-2.565-5.153-5.316-10.374-7.376-18.696-7.376-7.64 0-8.487-.696-6.154-5.055 2.622-4.9 9.838-6.045 31.97-5.072 10.767.474 17.79.298 23-.576 4.125-.692 8.738-1.267 10.25-1.277 5.044-.036 2.841-1.778-7-5.537-16.757-6.399-18.534-7.301-17.859-9.06.336-.876.872-3.917 1.19-6.758.56-4.992.474-5.223-2.551-6.897-3.114-1.723-3.156-1.715-8.027 1.636-2.693 1.853-4.752 3.532-4.575 3.732.177.2.628 2.894 1.003 5.987.547 4.512.358 5.945-.956 7.259-.9.9-2.05 1.381-2.556 1.068-1.384-.855-1.112-11.847.331-13.366.688-.724-2.906.795-7.986 3.376-11.279 5.732-18.122 12.315-22.589 21.733l-3.175 6.693-7.684-.004-7.685-.004-3-6.413c-4.593-9.813-10.88-15.865-21.77-20.954-5.048-2.359-11.132-5.622-13.519-7.252-7.375-5.033-8.457-5.427-9.952-3.626m10.099 7.617c-.006 1.237-.277 3.859-.603 5.826-.607 3.669 1.682 7.618 3.695 6.374 1.597-.987 1.082-11.144-.652-12.879-2.085-2.084-2.427-1.989-2.44.679M96 115.927c0 2.439.426 3.073 2.066 3.073 1.663 0 2.005-.535 1.75-2.741-.19-1.654-1.011-2.874-2.066-3.074-1.359-.258-1.75.355-1.75 2.742m55.213-1.739c-.667.666-1.213 2.053-1.213 3.082 0 1.366.605 1.783 2.25 1.55 1.624-.231 2.25-.992 2.25-2.737 0-2.78-1.524-3.659-3.287-1.895m72.287 26.44c-16.905 7.651-22.648 9.603-26.5 9.003-2.991-.465-3.209-.377-1.5.604 1.1.631 5.757 1.345 10.348 1.587 13.997.736 7.01 2.137-11.348 2.275l-17 .127 10 1.373c5.5.755 13.15 1.975 17 2.71l7 1.337-5.063.688c-2.784.378-7.458.233-10.386-.322-6.556-1.244-14.806-1.332-13.501-.146 1.091.993 18.91 5.153 22.025 5.143 1.142-.004 4.599-1.966 7.682-4.361 3.084-2.394 7.325-5.15 9.425-6.124 5.287-2.452 13.23-11.203 14.769-16.272 1.006-3.312-1.325-2.884-12.951 2.378m-109.25.034c-5.094 1.803-5.354 3.461-1 6.382 1.787 1.2 4.906 4.011 6.931 6.247l3.681 4.066 4.009-3.622c2.205-1.992 5.307-4.293 6.892-5.112 1.586-.82 3.405-2.12 4.043-2.889 4.23-5.097-13.904-8.842-24.556-5.072m-36.015 13.046c-1.245.239-2.006.853-1.691 1.363.718 1.162 34.456 1.242 34.456.082 0-1.418-26.766-2.598-32.765-1.445m61.765.027c-1.375.239-2.928.846-3.45 1.35-.577.556 3.35.917 10 .92 6.022.003 15.45.252 20.95.554 9.06.496 9.765.412 7.5-.9-2.492-1.442-29.294-2.916-35-1.924m-53.744 7.321c-2.334.461-5.034 1.298-6 1.86-1.666.971-1.664 1.025.033 1.054 4.601.078 21.316-2.216 22.161-3.042 1.174-1.147-10.187-1.057-16.194.128m61.153-.203c.58.938 12.212 2.474 20.091 2.654 2.75.063 8.15 1.073 12 2.245 3.85 1.171 10.825 3.079 15.5 4.238 4.675 1.16 9.4 2.341 10.5 2.625 1.627.42 1.72.32.5-.534-1.101-.771-1.152-1.054-.191-1.066.72-.008 1.07-.401.779-.873-.292-.472 1.017-1.692 2.909-2.71 2.176-1.172 3.014-2.116 2.281-2.569-.638-.395-2.401-.075-3.919.71-3.555 1.838-7.97 1.803-17.044-.137-19.142-4.091-44.774-6.797-43.406-4.583M56.5 165.508c-3.85.725-9.138 1.609-11.75 1.966-4.721.645-4.75.672-4.75 4.453v3.804l5.25-1.714c2.888-.942 10.763-3.214 17.5-5.048 6.737-1.835 12.25-3.703 12.25-4.152 0-1.209-10.486-.817-18.5.691m50.75.297c-1.787.177-3.25.743-3.25 1.258 0 1.297 5.73 1.183 6.541-.13.867-1.402.556-1.509-3.291-1.128m-20.5 1.856c-1.513.796-2.75 1.882-2.75 2.413 0 .558 1.158.664 2.75.252 3.413-.885 5.221-.841 7.624.184 1.806.77 1.811.702.135-1.855-1.924-2.937-3.651-3.158-7.759-.994m52.519.032c.973.254 2.323.237 3-.037.677-.274-.119-.481-1.769-.461-1.65.02-2.204.244-1.231.498m14.766 1.241c-1.574 2.942-1.267 3.264 1.429 1.498 2.259-1.48 2.729-1.482 5.662-.019 3.968 1.979 5.186 1.073 2.013-1.499-3.098-2.512-7.754-2.502-9.104.02m-84.514 2.683c-5.858 1.411-10.793 4.099-5.521 3.006 1.375-.285 5.113-.802 8.307-1.149 3.577-.39 5.665-1.058 5.437-1.741-.557-1.672-1.703-1.688-8.223-.116M172 171.305c0 2.081 2.223 2.706 9.332 2.625l6.168-.071-3.549-1.308c-1.953-.719-5.44-1.627-7.75-2.017-3.363-.568-4.201-.414-4.201.771m-74.861 15.774c-1.298 1.057-3.222 1.921-4.275 1.921-1.788 0-1.817.191-.427 2.879 3.025 5.849 11.612 14.02 18.081 17.205 5.281 2.599 7.605 3.146 13.672 3.215 13.838.157 23.941-6.913 35.146-24.597l1.773-2.798-4.069 2.075c-4.179 2.133-7.201 1.693-8.374-1.218-.279-.693-.544.39-.587 2.407-.093 4.337-.92 6.832-2.263 6.832-.533 0-2.294 1.324-3.911 2.941-3.618 3.618-8.838 4.554-21.002 3.766-9.297-.603-11.208-1.272-17.102-5.995-2.913-2.335-3.762-3.77-4-6.759l-.301-3.795-2.361 1.921m32.361 3.373c-3.034.952-5.539.998-10.371.191-6.291-1.05-6.4-1.029-8.75 1.702-1.308 1.522-2.379 3.203-2.379 3.736 0 1.986 5.472 2.919 17.131 2.919 12.025 0 15.869-.844 15.869-3.484 0-1.238-6.016-6.68-7.094-6.417-.223.054-2.206.663-4.406 1.353m-21.627 25.704c-1.129.763-1.107.886.127.696.825-.127 3.885.304 6.799.958 2.915.655 7.19 1.133 9.5 1.063 3.649-.11 3.391-.232-1.967-.93-3.393-.442-7.725-1.234-9.627-1.759-2.131-.588-3.985-.599-4.832-.028m25.792.53c-2.659.813-4.615 1.697-4.347 1.965.605.606 8.836-1.685 10.132-2.82 1.276-1.116.091-.941-5.785.855M121 220.435c0 1.79 2.192 5.562 3.225 5.55.883-.011.814-.314-.225-.985-1.333-.862-1.333-.973 0-1 1.241-.025 1.262-.181.122-.904-.758-.48-1.069-1.373-.691-1.984.392-.634.017-1.112-.872-1.112-.857 0-1.559.196-1.559.435M139.5 222c-.34.55.084 1 .941 1s1.559-.45 1.559-1-.423-1-.941-1-1.219.45-1.559 1m-11.5 1.833c0 .459.675.834 1.5.834s1.5-.375 1.5-.834c0-.458-.675-.833-1.5-.833s-1.5.375-1.5.833M141 225c0 .55.423 1 .941 1s1.219-.45 1.559-1c.34-.55-.084-1-.941-1s-1.559.45-1.559 1" fill="#1976D2" fill-rule="evenodd"/><path fill-opacity=".848" d="M103 18.311c-9.282 2.242-31.426 10.951-32.576 12.811-.632 1.023-10.657-4.355-13.596-7.294-1.005-1.005-2.391-1.863-3.078-1.905-3.698-.228-8.047-.759-15.052-1.84-6.045-.933-8.635-.936-11.5-.013-5.168 1.664-6.201 2.719-6.176 6.302.052 7.545 9.389 41.291 14.535 52.532 2.223 4.858 2.32 5.574.958 7.079-.833.921-1.515 1.996-1.515 2.39 0 .394 2.998-2.238 6.662-5.849 5.865-5.779 8.836-7.639 24.825-15.544C76.476 62.041 85.389 58 86.293 58c1.025 0 1.435-.546 1.088-1.449-.384-1.001.445-1.708 2.684-2.288l3.24-.84-6.403-6.55c-3.521-3.602-7.752-7.523-9.402-8.712-2.958-2.131-2.972-2.184-1-3.779 3.807-3.079 14.048-7.175 25-9.999 22.271-5.743 47.932-3.133 70.25 7.147 3.988 1.837 7.25 3.737 7.25 4.223 0 .486-4.136 4.677-9.191 9.313-6.527 5.985-8.698 8.524-7.488 8.757.937.181 4.486-1.764 7.888-4.321 9.151-6.878 22.206-12.73 41.291-18.508 9.35-2.83 17.675-5.224 18.5-5.32 3.427-.398 2.107 10.014-4.574 36.073-1.868 7.286-4.102 14.935-4.964 16.997l-1.566 3.75-1.597-3.296c-3.601-7.435-16.025-14.909-35.305-21.24C175.365 55.781 169.081 54 168.03 54c-5.04 0-1.888 2.284 10.241 7.421 7.296 3.091 14.833 6.592 16.747 7.781 1.915 1.189 5.689 3.28 8.386 4.646 2.697 1.366 7.159 4.728 9.917 7.471l5.013 4.987 1.746-2.156c.96-1.186 4.449-10.397 7.754-20.469 8.851-26.975 11.108-39.825 7.517-42.805-2.969-2.464-22.449-.65-31.851 2.966-7.915 3.044-14.365 6.131-15.018 7.186-.863 1.397-4.706 1.196-7.009-.366-3.826-2.594-19.086-8.599-28.473-11.205-7.873-2.184-12.154-2.705-25-3.038-13.611-.353-16.658-.123-25 1.892M26.366 31.224c.635 6.08 8.193 37.344 10.939 45.254 1.345 3.874 1.412 3.918 2.598 1.704 1.638-3.061 12.032-10.61 20.459-14.86 3.774-1.903 11.913-5.153 18.087-7.222l11.225-3.761-5.587-3.572c-9.6-6.136-19.104-10.38-33.075-14.767-7.418-2.329-15.911-5.307-18.874-6.618-2.963-1.31-5.62-2.382-5.905-2.382-.285 0-.225 2.801.133 6.224m211.528 6.903c-1.528 9.205-1.897 40.873-.611 52.373l.782 7-2.284-2.5c-2.562-2.805-10.33-9-11.285-9-.341 0 1.877 2.813 4.93 6.25C235.309 98.875 251 124.19 251 127.057c0 .934-.652 2.239-1.449 2.901-.797.661-1.97 2.853-2.607 4.872-1.506 4.776-9.195 19.174-13.975 26.17-2.067 3.025-6.354 8.353-9.528 11.839-4.539 4.987-5.469 6.53-4.356 7.235.778.492 1.923.902 2.543.911 1.494.02 9.372-10.24 9.372-12.205 0-.844.689-2.107 1.531-2.806.842-.699 4.009-5.366 7.038-10.372 3.028-5.006 5.936-9.777 6.461-10.602.525-.825 2.298-4.055 3.94-7.177 1.642-3.123 3.477-5.981 4.078-6.353 2.611-1.613-2.816-16.095-8.305-22.162-3.054-3.376-4.113-15.352-4.182-47.308-.04-18.962-.432-29.127-1.17-30.373-.918-1.552-1.346-.438-2.497 6.5M18.003 54.75c.002 15.3-.553 27.301-1.695 36.649-1.664 13.61-1.809 14.099-7.003 23.5C6.387 120.179 4 125.187 4 126.027c0 .841-.661 2.471-1.468 3.624-1.357 1.938-.921 3.178 5.803 16.472 8.587 16.978 9.331 18.191 16.944 27.627 6.147 7.618 6.353 7.768 8.681 6.296 1.626-1.028 2.107-.241-5.752-9.416C24.024 165.746 15 151.003 15 149.053c0-.572 5.063 2.241 11.25 6.251 14.853 9.628 14.862 9.632 10.336 4.883-3.537-3.711-16.813-13.298-22.24-16.059-1.185-.603-3.603-3.45-5.373-6.327-3.706-6.022-3.696-6.084 3.1-20.301 4.943-10.34 10.81-19.166 17.817-26.802 4.787-5.217 5.097-5.768 2.11-3.751-1.925 1.3-5.469 4.206-7.876 6.458L19.747 97.5l.597-6.5c.328-3.575 1.091-11.45 1.695-17.5.605-6.05.836-14.375.514-18.5-.865-11.096-2.798-23-3.733-23-.451 0-.819 10.237-.817 22.75m159.792 34.305c-.938.547-6.04 2.283-11.339 3.858-15.312 4.553-14.854 6.586.544 2.418 6.719-1.818 16.94-7.45 13.25-7.301-.412.017-1.517.478-2.455 1.025M73 89.533c0 1.281 9.605 5.636 15.39 6.978 8.465 1.963 9.973 1.197 1.967-1-3.221-.884-8.445-2.677-11.607-3.985-3.162-1.307-5.75-2.204-5.75-1.993m102.97 9.999c-1.258 1.339-3.054 2.677-3.993 2.975-1.464.465-1.636 1.567-1.213 7.767.272 3.975.625 7.377.784 7.561.159.185 1.921-.438 3.915-1.384 4.156-1.973 6.344-5.574 7.096-11.684.455-3.693.201-4.496-1.889-5.967-2.324-1.637-2.501-1.609-4.7.732m-106.546.157c-1.426 2.261-.007 11.009 2.177 13.422.924 1.022 3.08 2.685 4.79 3.695l3.109 1.838-.337-6.959c-.221-4.559.065-7.208.829-7.68.733-.453-.51-1.705-3.34-3.363-5.306-3.109-5.824-3.178-7.228-.953M84 112.417c0 4.204-.431 6.586-1.25 6.908-.687.27.365.261 2.338-.021 8.273-1.183 20.342 3.287 26.852 9.946 1.683 1.721 3.06 2.64 3.06 2.041 0-1.87-7.33-11.885-11.033-15.074l-3.532-3.043.032 2.663c.027 2.172-.475 2.721-2.717 2.979-2.314.267-2.75-.058-2.75-2.05 0-1.301.532-2.898 1.183-3.549.651-.651.989-1.31.75-1.464-1.065-.69-12.027-5.753-12.455-5.753-.263 0-.478 2.888-.478 6.417m75.227-3.638c-3.438 1.732-5.091 3.132-4.75 4.021.288.75.523 2.452.523 3.782 0 2.25.364 2.418 5.25 2.419h5.25v-6.498c0-3.574-.225-6.472-.5-6.44-.275.032-2.873 1.255-5.773 2.716m-14.078 9.774c-5.159 5.866-8.761 11.805-9.672 15.947-.574 2.608-.384 2.466 1.454-1.085 2.504-4.836 6.183-8.48 11.271-11.161 2.145-1.13 3.337-2.329 2.835-2.852-.477-.496-1.018-2.003-1.202-3.349-.316-2.309-.579-2.169-4.686 2.5m-29.07 17.03c.048 1.165.285 1.402.604.605.289-.722.253-1.585-.079-1.917-.332-.332-.568.258-.525 1.312m-2.164 2.969c-2.521.776-5.76 2.502-7.198 3.835-1.438 1.332-2.774 1.943-2.969 1.358-.246-.74-.948-.72-2.301.065-1.67.969-1.706 1.134-.25 1.16.933.016 3.684 1.086 6.112 2.377 2.427 1.291 5.344 2.591 6.481 2.888 2.651.693 8.579 12.159 7.83 15.144-.832 3.314-8.159 10.345-13.911 13.35-7.487 3.911-17.871 3.919-25.809.021-3.079-1.512-6.904-2.736-8.5-2.718l-2.9.031 3 2.489c1.65 1.369 4.933 4.104 7.295 6.078 2.363 1.973 7.079 7.179 10.48 11.567 6.945 8.96 15.803 16.174 22.049 17.959 5.411 1.546 18.297 1.45 23.278-.174 6.694-2.183 12.134-6.736 21.343-17.861 4.894-5.913 10.958-12.44 13.477-14.503 2.518-2.064 4.578-4.172 4.578-4.685 0-1.794-5.08-.91-10.222 1.778-4.179 2.185-6.551 2.718-12.231 2.744-6.152.029-8-.438-14.547-3.678-5.378-2.661-8.278-4.826-10.25-7.653-3.263-4.68-3.332-5.6-.851-11.389 2.12-4.945 5.525-8.06 10.663-9.756 1.891-.624 3.471-1.437 3.512-1.807.041-.369.258-1.648.482-2.842.332-1.772-.542-2.643-4.771-4.75-4.162-2.074-6.561-2.566-12.231-2.51-3.88.038-9.117.705-11.639 1.482m-14.165 1.11c.688.278 1.813.278 2.5 0 .688-.277.125-.504-1.25-.504s-1.937.227-1.25.504m13 .996c-2.062.856-3.75 2.161-3.75 2.901 0 .74 1.966 2.698 4.37 4.351 2.403 1.654 5.702 4.668 7.331 6.698l2.961 3.692 3.919-3.506c2.156-1.928 5.831-4.702 8.169-6.163 5.383-3.364 5.649-6.148.782-8.182-4.68-1.955-18.864-1.83-23.782.209m-16.937.025c.721.289 1.584.253 1.916-.079.332-.332-.258-.568-1.312-.525-1.165.048-1.402.285-.604.604M156 141.782c-4.16.645-4.764 2.218-.85 2.218 2.288 0 5.112 1.059 7.95 2.982 5.924 4.014 7.796 3.814 3.153-.338-4.728-4.227-7.099-5.352-10.253-4.862m-67.118.968a5.754 5.754 0 0 0-.012 1.465c.058.393-1.636 1.183-3.765 1.757-2.13.573-4.425 1.708-5.1 2.522-1.071 1.29-.797 1.335 2.133.348 1.849-.623 3.896-1.548 4.548-2.056.652-.509 2.452-1.305 4-1.769 2.524-.758 2.576-.854.505-.931-1.27-.047-2.031-.536-1.691-1.086.34-.55.366-1 .059-1s-.612.338-.677.75m5.868.912c.688.278 1.813.278 2.5 0 .688-.277.125-.504-1.25-.504s-1.937.227-1.25.504M145 144c0 .55.477 1 1.059 1s.781-.45.441-1-.816-1-1.059-1-.441.45-.441 1m58.75 7.662c.688.278 1.813.278 2.5 0 .688-.277.125-.504-1.25-.504s-1.937.227-1.25.504M55 155l-4.5.7 4.5.041c2.475.023 7.2-.293 10.5-.703l6-.744-6 .003c-3.3.002-8.025.318-10.5.703m22.363-.303c1.08 1.08 33.757 1.307 33.092.23-.315-.51-8.046-.927-17.181-.927-9.134 0-16.294.314-15.911.697m59.637.087c0 .632 5.755 1.02 15.426 1.039 8.485.018 17.597.297 20.25.62 4.198.512 4.5.436 2.324-.585-3.237-1.519-38-2.501-38-1.074m52.75-.061c1.787.222 4.713.222 6.5 0 1.787-.221.325-.403-3.25-.403s-5.037.182-3.25.403m-128.25 4.99c-4.698 1.13-3.133 1.927 2.156 1.097 3.175-.498 5.976-1.109 6.225-1.357.574-.575-5.725-.379-8.381.26m121.931.176c.378.611 2.715 1.111 5.194 1.111 2.478 0 5.377.466 6.441 1.035 1.064.57 1.934.81 1.934.535 0-1.078-3.75-2.373-8.878-3.066-3.848-.52-5.182-.411-4.691.385M91.5 161.034c-4.4.41-9.125 1.254-10.5 1.874-2.337 1.055-2.271 1.098 1 .657 1.925-.259 7.222-.777 11.772-1.149 4.55-.373 8.514-1.069 8.809-1.547.295-.478-.277-.804-1.272-.725-.995.079-5.409.479-9.809.89m56.902-.192c.394.637 2.653 1.158 5.021 1.158 2.367 0 6.701.455 9.63 1.01 3.032.575 5.703.634 6.199.138.97-.97-2.933-1.735-14.159-2.777-5.502-.511-7.223-.39-6.691.471m-100.652 2.82c.688.278 1.813.278 2.5 0 .688-.277.125-.504-1.25-.504s-1.937.227-1.25.504m129.75.866c2.2.725 5.575 1.306 7.5 1.29l3.5-.028-4-1.318c-2.2-.725-5.575-1.306-7.5-1.29l-3.5.028 4 1.318M70 164.393c0 .216.675.652 1.5.969.825.316 1.5.139 1.5-.393 0-.533-.675-.969-1.5-.969s-1.5.177-1.5.393m36.25 2.296c.963.252 2.537.252 3.5 0 .963-.251.175-.457-1.75-.457s-2.713.206-1.75.457m-19.381 1.59c-1.386 1.077-.975 1.263 2.747 1.244 2.457-.013 4.235-.462 4.053-1.023-.489-1.512-4.951-1.657-6.8-.221m52.944-.596c.721.289 1.584.253 1.916-.079.332-.332-.258-.568-1.312-.525-1.165.048-1.402.285-.604.604m15.387.517c-1.903 1.903-1.394 2.938.779 1.581 1.516-.947 2.685-.969 5-.095 1.661.627 3.021.773 3.021.325 0-.725-5.276-3.011-6.949-3.011-.358 0-1.191.54-1.851 1.2m-86.06 3.947c-1.847.532-3.197 1.081-3 1.221.942.664 10.86-.673 10.86-1.465 0-1.129-3.46-1.022-7.86.244m103.36-.361c.55.574 3.7 1.33 7 1.681 4.556.483 5.58.373 4.256-.462-2.393-1.506-12.59-2.611-11.256-1.219M129.5 183c-4.631 3.68-6.46 3.746-10.466.376-3.139-2.642-5.333-2.646-3.142-.006.917 1.105.838 1.757-.356 2.951-1.377 1.377-1.355 1.579.216 1.99 1.288.337 1.144.488-.547.573-2.842.144-7.205 4.355-7.205 6.954 0 2.692 2.473 3.133 17.679 3.148 10.608.011 13.482-.29 14.735-1.543 1.387-1.387 1.394-1.807.065-3.835-2.172-3.315-5.839-4.985-9.13-4.159l-2.806.704 2.729-2.529c1.5-1.391 2.728-2.963 2.728-3.494 0-.532.273-1.678.607-2.548.927-2.415-.934-1.898-5.107 1.418m-92.908.309c-1.638 1.198-1.207 1.818 5.059 7.293 8.475 7.403 19.123 15.678 22.391 17.4 1.352.712 3.765 2.382 5.362 3.711 1.597 1.329 6.061 4.007 9.919 5.95 3.858 1.943 8.665 4.624 10.682 5.959 2.016 1.334 8.54 4.44 14.498 6.902 5.957 2.462 12.357 5.376 14.221 6.476 5.927 3.497 12.024 2.754 21.209-2.583 4.338-2.52 12.091-6.481 17.227-8.801 10.822-4.888 35.025-18.756 42.418-24.305 2.793-2.096 8.338-6.792 12.322-10.435 7.084-6.477 7.186-6.638 4.602-7.286-2.22-.557-3.516.136-8.129 4.352-9.849 9.001-34.305 24.324-55.905 35.025-11.285 5.592-21.988 10.405-23.783 10.697-6.606 1.072-38.193-13.254-56.078-25.432-12.54-8.539-25.781-18.675-29.553-22.624-3.884-4.066-3.993-4.105-6.462-2.299m61.484 2.099c-2.779 2.97-4.565 3.246-6.766 1.044-2.236-2.235-2.638-1.17-1.016 2.69 1.948 4.637 10.803 14.998 15.401 18.022 8.565 5.633 19.268 7.245 28.873 4.349 6.716-2.024 15.564-9.352 21.502-17.806 5.887-8.384 6.36-10.55 1.68-7.696-4.128 2.517-6.405 2.514-7.982-.011-1.995-3.195-2.768-2.357-2.768 3 0 2.75-.381 5-.847 5-.465 0-2.468 1.575-4.45 3.5l-3.604 3.5h-11.306c-13.318 0-16.646-.789-21.6-5.124-3.087-2.7-3.775-4.038-4.193-8.146l-.5-4.914-2.424 2.592" fill="#1976D2" fill-rule="evenodd"/></svg>